<svg width="101" height="62" viewBox="0 0 101 62" fill="none" xmlns="http://www.w3.org/2000/svg">
<path d="M31.3025 52.9268H36.0193V54H29.9831V44.0469H31.3025V52.9268ZM40.6274 54.1367C39.6248 54.1367 38.8091 53.8086 38.1802 53.1523C37.5513 52.4915 37.2368 51.6097 37.2368 50.5068V50.2744C37.2368 49.5407 37.3758 48.8867 37.6538 48.3125C37.9363 47.7337 38.3283 47.2826 38.8296 46.959C39.3354 46.6309 39.8823 46.4668 40.4702 46.4668C41.4318 46.4668 42.1792 46.7835 42.7124 47.417C43.2456 48.0505 43.5122 48.9574 43.5122 50.1377V50.6641H38.5014C38.5197 51.3932 38.7316 51.9834 39.1372 52.4346C39.5473 52.8812 40.0669 53.1045 40.6958 53.1045C41.1424 53.1045 41.5207 53.0133 41.8305 52.8311C42.1404 52.6488 42.4116 52.4072 42.644 52.1064L43.4165 52.708C42.7967 53.6605 41.867 54.1367 40.6274 54.1367ZM40.4702 47.5059C39.9598 47.5059 39.5314 47.6927 39.185 48.0664C38.8387 48.4355 38.6245 48.9551 38.5425 49.625H42.2475V49.5293C42.2111 48.8867 42.0379 48.39 41.728 48.0391C41.4181 47.6836 40.9988 47.5059 40.4702 47.5059ZM49.7883 54C49.7154 53.8542 49.6562 53.5944 49.6106 53.2207C49.0227 53.8314 48.3209 54.1367 47.5051 54.1367C46.776 54.1367 46.1767 53.9316 45.7073 53.5215C45.2424 53.1068 45.01 52.5827 45.01 51.9492C45.01 51.179 45.3017 50.582 45.885 50.1582C46.4729 49.7298 47.2978 49.5156 48.3596 49.5156H49.5901V48.9346C49.5901 48.4925 49.4579 48.1416 49.1936 47.8818C48.9293 47.6175 48.5396 47.4854 48.0247 47.4854C47.5735 47.4854 47.1952 47.5993 46.8899 47.8271C46.5845 48.055 46.4319 48.3307 46.4319 48.6543H45.1604C45.1604 48.2852 45.2903 47.9297 45.55 47.5879C45.8144 47.2415 46.1698 46.9681 46.6164 46.7676C47.0676 46.5671 47.5621 46.4668 48.0998 46.4668C48.9521 46.4668 49.6197 46.681 50.1028 47.1094C50.5858 47.5332 50.8365 48.1188 50.8547 48.8662V52.2705C50.8547 52.9495 50.9413 53.4896 51.1145 53.8906V54H49.7883ZM47.6897 53.0361C48.0862 53.0361 48.4622 52.9336 48.8176 52.7285C49.1731 52.5234 49.4306 52.2568 49.5901 51.9287V50.4111H48.5989C47.0494 50.4111 46.2747 50.8646 46.2747 51.7715C46.2747 52.168 46.4068 52.4779 46.6711 52.7012C46.9355 52.9245 47.275 53.0361 47.6897 53.0361ZM59.3252 50.3838C59.3252 51.5094 59.0677 52.4163 58.5527 53.1045C58.0378 53.7926 57.3405 54.1367 56.4609 54.1367C55.5632 54.1367 54.8568 53.8519 54.3418 53.2822V56.8438H53.0771V46.6035H54.2324L54.2939 47.4238C54.8089 46.7858 55.5244 46.4668 56.4404 46.4668C57.3291 46.4668 58.0309 46.8018 58.5459 47.4717C59.0654 48.1416 59.3252 49.0736 59.3252 50.2676V50.3838ZM58.0605 50.2402C58.0605 49.4062 57.8828 48.7477 57.5273 48.2646C57.1719 47.7816 56.6842 47.54 56.0645 47.54C55.2988 47.54 54.7246 47.8796 54.3418 48.5586V52.0928C54.7201 52.7673 55.2988 53.1045 56.0781 53.1045C56.6842 53.1045 57.165 52.8652 57.5205 52.3867C57.8805 51.9036 58.0605 51.1882 58.0605 50.2402ZM67.4265 50.3838C67.4265 51.5094 67.169 52.4163 66.6541 53.1045C66.1391 53.7926 65.4418 54.1367 64.5623 54.1367C63.6645 54.1367 62.9581 53.8519 62.4431 53.2822V56.8438H61.1785V46.6035H62.3337L62.3953 47.4238C62.9102 46.7858 63.6257 46.4668 64.5418 46.4668C65.4304 46.4668 66.1323 46.8018 66.6472 47.4717C67.1668 48.1416 67.4265 49.0736 67.4265 50.2676V50.3838ZM66.1619 50.2402C66.1619 49.4062 65.9841 48.7477 65.6287 48.2646C65.2732 47.7816 64.7856 47.54 64.1658 47.54C63.4002 47.54 62.8259 47.8796 62.4431 48.5586V52.0928C62.8214 52.7673 63.4002 53.1045 64.1795 53.1045C64.7856 53.1045 65.2664 52.8652 65.6218 52.3867C65.9819 51.9036 66.1619 51.1882 66.1619 50.2402ZM70.6948 51.1904H69.5532L69.4644 44.0469H70.7906L70.6948 51.1904ZM69.4165 53.3643C69.4165 53.1592 69.4781 52.9883 69.6011 52.8516C69.7287 52.7103 69.9156 52.6396 70.1616 52.6396C70.4077 52.6396 70.5946 52.7103 70.7222 52.8516C70.8498 52.9883 70.9136 53.1592 70.9136 53.3643C70.9136 53.5693 70.8498 53.7402 70.7222 53.877C70.5946 54.0091 70.4077 54.0752 70.1616 54.0752C69.9156 54.0752 69.7287 54.0091 69.6011 53.877C69.4781 53.7402 69.4165 53.5693 69.4165 53.3643Z" fill="white"/>
<path fill-rule="evenodd" clip-rule="evenodd" d="M61.7469 13.5916C64.3201 12.2757 65.4332 5.71632 65.4332 5.71632C67.8741 6.08891 68.5184 5.27384 68.8228 4.69616C68.9397 4.48267 69.1042 4.11512 68.9111 4.03154C68.7432 3.95728 68.5757 3.88376 68.4087 3.81048L68.4084 3.81035L68.4084 3.81032L68.4083 3.81031C68.0476 3.65198 67.6895 3.49476 67.3347 3.33358C67.2523 3.29663 67.1907 3.2226 67.1524 3.14309C67.0974 3.00026 67.051 2.90218 67.0088 2.81294C66.946 2.68015 66.8924 2.56693 66.8337 2.35495C66.6873 1.82611 65.8817 1.80279 65.6587 1.80227C65.3966 1.8016 65.2254 1.81968 65.0163 1.84177C64.8254 1.86195 64.6028 1.88547 64.2503 1.9011C63.381 -0.439651 61.1082 -0.0816606 60.2255 0.217547C60.1731 0.233012 60.1294 0.239403 60.0938 0.244613C59.9952 0.259031 59.9584 0.264407 59.972 0.428063C60.2645 3.54816 62.8528 3.43092 62.8528 3.43092C62.379 5.82671 60.6671 7.01999 58.868 7.02678C50.118 7.05985 38.835 8.02646 37.9012 19.489C37.4512 28.0261 34.3989 29.5908 30.3779 28.8198C30.2076 28.7872 30.0055 28.8532 30.0001 29.0823C29.9966 29.2352 30.1164 29.4084 30.5646 29.4811C36.4181 30.4306 38.9115 27.1868 40.318 20.8526C41.7535 14.3964 45.6095 12.8016 45.6095 12.8016C45.6002 13.0106 45.5859 13.23 45.5714 13.4516C45.5275 14.1241 45.4822 14.8173 45.5732 15.3038C45.7019 15.9911 45.8429 16.5633 45.9666 17.0653C46.4655 19.0899 46.6826 19.9707 44.6687 22.6454C43.4008 24.33 41.8251 25.5156 41.2546 25.9186C41.1256 26.0088 41.0751 26.1697 41.1296 26.3125C42.9811 31.238 42.1735 33.4503 41.8986 33.9587C41.7161 34.2964 42.1549 35.6219 42.7406 35.1302C43.3429 34.6245 44.3574 33.359 44.1693 30.6644C44 28.2186 43.9681 27.0658 44.9561 25.9641C45.6804 25.156 46.7987 24.4234 47.9783 23.6508C49.1202 22.9028 50.3196 22.1171 51.2744 21.189C52.35 20.1431 53.1567 19.1052 53.4406 18.3446C53.976 16.9165 53.9766 13.4205 52.4394 12.3083C53.93 13.0058 54.5606 14.7086 54.8879 16.3155C56.729 15.1051 60.1425 13.9133 60.1425 13.9133C60.1425 13.9133 60.9836 16.6787 59.5574 17.4442C58.6993 17.9253 58.6981 17.7228 58.6961 17.3817V17.3817V17.3817C58.6957 17.3194 58.6953 17.2526 58.6897 17.1844C58.6388 16.567 58.3054 16.662 57.946 16.7958C57.7301 16.8762 57.5167 16.9968 57.5511 17.3636C57.6392 18.0374 58.0478 18.9283 59.8113 18.499C60.5169 18.3794 61.2252 17.7757 61.4187 17.1512C61.6542 16.4387 61.8268 14.1882 61.7469 13.5916ZM55.6735 22.892C55.7273 22.5888 55.5252 22.2994 55.2221 22.2455C54.9189 22.1916 54.6294 22.3937 54.5756 22.6969L52.6026 33.8008C52.5487 34.104 52.7508 34.3934 53.054 34.4473C53.3572 34.5012 53.6466 34.299 53.7005 33.9959L55.6735 22.892ZM57.8822 21.4075C58.1854 21.4614 58.3875 21.7508 58.3336 22.054L56.7017 31.2387C56.6478 31.5419 56.3584 31.744 56.0552 31.6901C55.752 31.6363 55.5499 31.3468 55.6038 31.0436L57.2357 21.8589C57.2896 21.5557 57.579 21.3536 57.8822 21.4075ZM60.1396 26.0129C60.1935 25.7097 59.9914 25.4203 59.6882 25.3664C59.385 25.3126 59.0956 25.5147 59.0417 25.8178L57.1905 36.2362C57.1367 36.5394 57.3388 36.8288 57.6419 36.8827C57.9451 36.9366 58.2346 36.7345 58.2884 36.4313L60.1396 26.0129Z" fill="white"/>
</svg>
